# xmcd
#
# Track frame offsets: 
#        150
#        12786
#        25126
#        37501
#        51435
#        62427
#        75234
#        86299
#        98866
#        110671
#        126302
#        140351
#        154689
#        166909
#        179837
#        192642
#        207005
#        219453
#        229000
#        242488
#        255912
#        269105
#        281555
#        295012
#        308066
#
# Disc length: 4265 seconds
#
# Revision: 1
# Processed by: cddbd v1.5.2PL0 Copyright (c) Steve Scherf et al.
# Submitted via: ExactAudioCopyFreeDBPlugin 1.0
#
DISCID=5210a719
DTITLE=Various Artist - The Vee Jay Records Story [Real Gone Music]
DYEAR=2017
DGENRE=Rhythm and Blues
TTITLE0=Jimmy Reed - High and Lonesome
TTITLE1=The Spaniels - Goodnight Sweetheart, Goodnight
TTITLE2=The El Dorados - My Loving Baby
TTITLE3=Jimmy Reed - You Don'T Have to Go
TTITLE4=The Rhythm Aces - I Wonder Why
TTITLE5=The El Dorados - Little Miss Love
TTITLE6=The Five Echoes - I Really Do
TTITLE7=The Dells - Tell the World
TTITLE8=The El Dorados - At My Front Door
TTITLE9=Morris Pejoe - Hurt My Feelings
TTITLE10=The Five Echoes - Fool's Prayer
TTITLE11=The Earl Philipps Orchestra - Oop De Oop
TTITLE12=The El Dorados - I Began to Realize
TTITLE13=The Dells - Dreams of Contentment
TTITLE14=The Kool Gents - This is the Night
TTITLE15=The Spaniels - False Love
TTITLE16=The Magnificents - Up on the Mountain
TTITLE17=The Hi-Liters - Bobby Sox Baby
TTITLE18=Eddie Taylor - Bigtown Playboy
TTITLE19=The Five Echoes - Soldier Boy
TTITLE20=The Orioles - I Just Got Lucky
TTITLE21=Camille Howard - Rock 'n' Roll Mama
TTITLE22=The Spaniels - Since I Fell for You
TTITLE23=The Dells - Oh What a Night
TTITLE24=The Kool Gents - You Know
EXTD=
EXTT0=
EXTT1=
EXTT2=
EXTT3=
EXTT4=
EXTT5=
EXTT6=
EXTT7=
EXTT8=
EXTT9=
EXTT10=
EXTT11=
EXTT12=
EXTT13=
EXTT14=
EXTT15=
EXTT16=
EXTT17=
EXTT18=
EXTT19=
EXTT20=
EXTT21=
EXTT22=
EXTT23=
EXTT24=
PLAYORDER=
